<svg width="766" height="172" viewBox="0 0 766 172" fill="none" xmlns="http://www.w3.org/2000/svg">
<path d="M528.338 36.772V136.413H513.107L458.162 68.9419V136.413H439.8V36.772H455.031L509.976 104.243V36.772H528.338ZM553.33 60.4013H571.123V136.413H553.33V60.4013ZM562.298 47.8749C559.071 47.8749 556.367 46.8785 554.184 44.8857C552.001 42.7979 550.91 40.2357 550.91 37.1991C550.91 34.1624 552.001 31.6476 554.184 29.6548C556.367 27.5671 559.071 26.5232 562.298 26.5232C565.524 26.5232 568.229 27.5196 570.411 29.5124C572.594 31.4104 573.685 33.8302 573.685 36.772C573.685 39.9036 572.594 42.5607 570.411 44.7433C568.324 46.8311 565.619 47.8749 562.298 47.8749ZM625.505 103.816L612.267 116.343V136.413H594.474V30.7935H612.267V94.564L649.134 60.4013H670.486L638.743 92.2865L673.475 136.413H651.838L625.505 103.816ZM753.23 98.8344C753.23 100.068 753.135 101.824 752.945 104.101H693.302C694.346 109.7 697.051 114.16 701.416 117.482C705.876 120.708 711.38 122.321 717.928 122.321C726.279 122.321 733.159 119.569 738.568 114.065L748.105 125.026C744.689 129.106 740.371 132.19 735.152 134.278C729.932 136.366 724.049 137.41 717.501 137.41C709.15 137.41 701.796 135.749 695.438 132.428C689.079 129.106 684.145 124.504 680.634 118.62C677.217 112.642 675.509 105.904 675.509 98.4073C675.509 91.0054 677.17 84.3626 680.491 78.4791C683.908 72.5006 688.605 67.8506 694.583 64.5293C700.562 61.2079 707.3 59.5472 714.796 59.5472C722.198 59.5472 728.794 61.2079 734.582 64.5293C740.466 67.7557 745.021 72.3582 748.247 78.3367C751.569 84.2203 753.23 91.0528 753.23 98.8344ZM714.796 73.7817C709.103 73.7817 704.263 75.4898 700.277 78.9061C696.386 82.2275 694.014 86.6876 693.16 92.2865H736.29C735.531 86.7825 733.206 82.3224 729.316 78.9061C725.425 75.4898 720.585 73.7817 714.796 73.7817Z" fill="black"/>
<path fill-rule="evenodd" clip-rule="evenodd" d="M223.064 58.1513C149.074 78.7386 83.4555 95.5602 77.2452 95.5276C59.3779 95.4321 42.6565 81.2635 40.1416 64.0925C38.9605 56.0136 39.1686 44.3 40.6049 38.0656L43.217 26.7278L33.6398 38.7428C18.8005 57.3599 4.59885 86.64 1.72849 104.538C-3.91019 139.687 24.2356 162.866 62.07 154.229C77.066 150.808 361.529 27.0251 366.666 21.6854C370.592 17.6069 349.607 22.9363 223.064 58.1513Z" fill="black"/>
</svg>
